<?xml version="1.0" encoding="UTF-8"  standalone="no"?> <svg id="Layer_1" data-name="Layer 1" xmlns="http://www.w3.org/2000/svg"   viewBox="0 0 128 128"><defs><style>.cls-1{fill:"#ec5252"}</style></defs><title>b</title><path class="cls-1"   d="M74.44641,26.94214c-.1747.27171-.33806.54643-.49522.82527C74.1063,27.49167,74.27224,27.21642,74.44641,26.94214Z"/><path class="cls-1" d="M95.07677,14.43379c-.20059.04118-.40322.08546-.60072.12867-.164.03636-.32553.07219-.48649.1106-.25354.0574-.50141.11633-.75078.18092-.14553.03524-.288.07251-.433.11033-.074.01788-.145.0378-.21852.05826q-.23292.05989-.46428.12747-.86681.24228-1.70312.51579a9.7833,9.7833,0,0,0-7.91211-4.40308l-32.343,5.40146A4.69665,4.69665,0,0,0,46.353,18.449L4.026,73.67661a5.93655,5.93655,0,0,0,1.38972,8.63646l50.7186,33.44378a5.9366,5.9366,0,0,0,8.48494-2.12778L98.1162,54.00461l.73985-1.31768a4.66585,4.66585,0,0,0,.4968-3.05c.23462-.03209.4718-.0647.70794-.10246.12759-.01815.25723-.03941.38687-.06066.12449-.02019.249-.0404.37553-.06369q.6875-.117,1.38057-.25929c14.78174-3.03451,24.79395-13.03613,22.79575-22.76975S109.85851,11.39928,95.07677,14.43379ZM114.81923,36.034a29.15825,29.15825,0,0,1-13.93529,6.68781c-.27.05543-.538.10776-.807.15494-.25564.04713-.50924.09114-.76338.1326a.19841.19841,0,0,0-.03909.00534c-.26752.04152-.535.083-.80157.11631-.26548.03842-.532.07169-.797.0993-.27787.03023-.55574.06048-.83264.08249-.27893.0251-.55323.04657-.8286.06289-.27485.01892-.54817.03213-.822.0428-.27127.01013-.54051.01717-.80823.01852l-.00772.00159c-.23271.0022-.46284.00389-.69145-.0001q-.0919.0028-.18536-.00214c-.24459-.00339-.48455-.01042-.725-.02q-.43334-.01556-.86212-.04814c-.22506-.01275-.44861-.03119-.67011-.05272-.5491-.05075-1.09055-.11647-1.61975-.2008-.10511-.01593-.20765-.0324-.3133-.05092a22.99394,22.99394,0,0,1-2.88768-.67215c-.10313-.03243-.20317-.06282-.30374-.09577-.22948-.07349-.45435-.1506-.67718-.23083q-.14779-.05407-.30486-.11429t-.32348-.12656l-.02888-.01015q-.14935-.06179-.308-.12972c-.11455-.04885-.22963-.10026-.3478-.15373-.19508-.08859-.39687-.18385-.60077-.28938-.07175-.03619-.14607-.07186-.21887-.1132q-.13472-.06882-.271-.14536c-.12391-.06836-.24836-.13929-.37075-.21332-.06094-.03574-.1224-.074-.18387-.11233-.2479-.15011-.49071-.31468-.73255-.48746-.07544-.0542-.15452-.113-.22791-.17029-.08528-.06291-.16541-.12685-.24606-.19338-.077-.0619-.151-.12177-.22337-.1873-.18512-.15763-.36411-.32457-.53439-.50133-.0564-.05276-.10764-.10656-.15942-.16293-.04762-.04918-.09318-.10147-.13875-.15375-.04142-.0451-.08338-.09276-.12275-.141-.0492-.0569-.09582-.11433-.143-.17433a8.42244,8.42244,0,1,1-2.53317-15.21163A8.44348,8.44348,0,0,1,82.698,27.33322l-.23676.21745c.07892-.07247.15785-.145.23729-.21487A8.43669,8.43669,0,0,1,83.70391,32.468a8.27363,8.27363,0,0,1-.83044,2.7433c.34292,1.01769,1.8757,2.13951,3.99154,2.90312a22.86562,22.86562,0,0,0,9.78389,1.00113L93.3851,26.02371,92.3645,21.93985q.72627-.24155,1.47946-.45648c.2838-.0797.5707-.15736.86123-.2304q.83607-.21585,1.6914-.3901a29.15841,29.15841,0,0,1,15.443.65678c2.2025.79407,6.00648,2.653,6.7308,6.18125S116.53076,34.4364,114.81923,36.034Z"/></svg>